<svg xmlns="http://www.w3.org/2000/svg" xmlns:xlink="http://www.w3.org/1999/xlink" version="1.1" width="461.72605" height="376.53578" viewBox="0,0,461.72605,376.53578"><g transform="translate(-8.61907,7.58535)"><g stroke-miterlimit="10"><path d="M291.24708,353.04666l6.88674,-1.91298l5.73895,-0.3826l2.67818,2.29558l-2.29558,3.06078l-1.14779,6.12155l-7.26934,5.35636l-8.41713,-2.29558l-1.53039,-6.88674z" fill="#0077ff" stroke="none" stroke-width="0" stroke-linecap="round" display="none" class="4"/><path d="M272.83952,317.17625l-27.90449,-6.53363l-12.10906,-19.72531l-21.60769,-104.16527l133.66667,-10.66667h6l4.66667,3l-2.66667,2l0.66667,3.66667h2.66667l4.66667,-1.66667l2.66667,-5l5,-1l3.66667,2l7.66667,0.33333l-1,4.66667l-2.66667,-1.66667l-7.66667,5.66667v3.33333l-4.66667,3.66667l-5.33333,9.33333l0.66667,3.66667l5,2h3.66667l2.33333,5.66667l4.33333,5.33333v4.33333l4.33333,-0.33333l1.33333,4.33333l2.33333,2l-3.33333,0.66667l4.66667,3.33333l1,3.33333l-3.66667,1.66667l-3.33333,6.33333l3.66667,-1.66667l3.66667,2.33333l4,-2.66667l1.66667,1.33333l-3.66667,3.66667l1.33333,4.33333l-3.66667,1l2.66667,3.33333l-2.66667,7.33333l-2.66667,-1.66667l-7,20.66667v4.66667l2.33333,2h-3.33333l-6,10.66667l-2,-1.33333v2.66667l-6,8.33333h-4l-2,3.66667v3.66667l-11.66667,1.66667l-12,7v-3.66667l-2.66667,-2.66667l-1,2.33333l1,4.33333l-9.33333,5.66667l-3.66667,-0.66667l-1,2.33333l-8.66667,2.33333l-4.66667,3.66667l3,5.33333l-5.33333,2.66667l-2.66667,-6.66667l1.66667,-5.33333l-3.33333,-1.66667l-2.33333,3l-6.33333,-3.66667l-5.66667,3.66667l-2,-1.66667h-3z" fill="#0077ff" stroke="none" stroke-width="0" stroke-linecap="round" display="none" class="4"/><path d="M30.55164,148.64289l1,-4.33333l3.33333,-8.33334l10.33333,-2.86666l1.33333,3.86666l6.33333,-0.66666l5.33333,-4.33334l7.66666,2l4,-2.66666l12.66667,-2.33334l0.66666,-4.66666l5.66666,-6l-0.66666,-8.66667l3,-4.66666l-3.33334,-2.33334l11.66667,-1l0.66666,2.66667l4.33334,0.33333l-0.33334,-4l6.66666,-15l6,4.33334l5.66667,-0.66666l-1,3.33333l6.66666,-2.66666v-5.66666l2.33334,-4.33334l6,-1.33334l2.66666,-5.66666l3,3l6.33334,-3.33333l4.66666,-0.66667l151,47.33334l48,41.33333l0.33333,5.33334l-5.33333,3.33334l-3.33333,-1.66667l-2,2l-0.33333,3.66667l3.66667,3.33333l-4.33333,4.33334l-5.33333,0.33334l-9.66667,14.33333l2,9.66667h-6l0.33333,-9.33334l-6,-1.66666l0.66667,8l-3.33333,4.33333l-9,2.33334l-12.33333,6.66666l-1,-5.66666l2.66667,-5.66666l-2.33333,-5l-22.33333,-6l-18,-1.66667l-16.33334,10.33334l-3.66666,11.33334l-4,2l2.66666,4.33333l-10.66666,-1l1,5l7.66666,2l8,-6.33333l7.66667,3.33333l3.66666,12l11,-3l21.66667,9h9.66667l5,6.66667l-14.66667,9.66667l7,10l-0.66667,9.33333l-9,-11l-19,7.66667l5.33333,6l-4,2l-5.66667,-0.66667l-1,3.33333l-12,1.33333l1.33333,7.66667l5.66667,-1.33333l1.33333,2.33333l-4,5l6.33333,3.33333l-2.33333,6l7,-2.33333l4.33333,3.33333l3.33333,-3.66667l8.33333,-4.33333l4.33333,2.33333l14.66667,-9l13.33333,-2l2,4.33333l-4.33333,5.66667l5.66667,0.33333l-1,3.66667l6.33333,-0.66667l-0.33333,4.33333h5.66667l-4.33333,7.33333l-2,-2.66667l-6.33333,4l2.33333,4.66667l-10,10l-3,-2.33333v-5.66667l-6.66667,1.66667l-3.66667,-2l-3,7.33333l-6.33333,4.33333l-6.33333,-1.33333l-3,-6.33333l3,-2.33333l-8.66667,-1l-3.33333,-3.33333l-6.33333,1.66667v2.66667l-6,0.33333v3.33333l-4.66667,-1l-1.33333,-2.33333l-3.66667,3l-10.66667,-0.33333l-1.66667,2l1.66667,3.66667l-0.33333,6.33333h-4l-1,-5.66667l-6,2.66667l-3.33333,0.33333l-2,-6.66667h-5.33333l3.33333,-8.33333l-5,-0.66667l-1.33333,-7l1.33333,-2.66667l-7,-0.33333l-5.33333,3.33333l2.33333,-5l-2,-3l1.66667,-2.66667l0.66667,-3.33333l6.66667,-4.66667l2.66667,-6.66667v-10.33333h-3.66667l-1,-6.66667l-4.33333,-2.66667l-3,4.33333l-6.33333,-4.33333l1.33333,-4l-2,-4.33333l-7.66667,1.66667l-5.66667,-2l-7,3l-8.66667,4.33333l-81.80798,-76.09168l-3.68591,-6.60664l-8.84916,-3.30166l-10.32361,-1.33333l-9,-10v-5.66667l-2.33333,-0.66667l-0.66667,-2.66667h-3.66667l-1.33333,-2.33333l4,-1l0.66667,-10l-1.66667,-3.33333z" fill="#00ffff" stroke="#000000" stroke-width="0" stroke-linecap="round" display="none" class="3"/><path d="M352.21831,165.6429l-4.29966,-7.3994l-3.9095,0.23738l-7.57452,-4.7751l0.00955,-3.8905l-4.58482,-3.11316l-6.0456,2.41012l-3.59544,-3.80269l11.33333,-4.66667l31.66667,5.33333l-5.19322,8.74996l-7.31704,5.46642z" fill="#a6ff00" stroke="none" stroke-width="0" stroke-linecap="butt" display="none" class="7"/><path d="M294.5146,126.34072l-0.27991,-7.83754l1.67947,-5.59825l-2.2393,-0.27991l-0.27991,-5.31833l2.79912,-0.55982v-3.63886l3.63886,-1.67947l8.11746,2.51921l3.35895,6.15807l3.07904,0.27991l7.55763,-9.51702l8.39737,0.55982l5.87816,1.39956l6.99781,-3.07904l-0.55982,9.79693l-9.23711,8.11746l-1.95939,4.19868l3.35895,4.75851l-0.55982,6.99781l-3.07904,1.95939l1.67947,6.43798l-1.67947,3.91877h-9.51702l-4.75851,5.31833l-12.59605,0.83974l-5.87816,-2.51921l1.67947,-8.67728l-2.2393,-9.51702z" fill="#ffd200" stroke="none" stroke-width="0" stroke-linecap="round" display="none" class="6"/><path d="M342.88498,94.41868l-8.66667,-5l-5,1.33333l-2.33333,3.66667h-7l-4,-5.33333l2.4936,-4.82693l-1.72009,-7.05342l2.22649,-5.78632l10.66667,2.66667l3.66667,-5l4.66667,-2l-1.66667,-5.33333l3.66667,-10.33333l3.33333,-3.66667l-1.33333,-5l-3.66667,0.33333l3.33333,-7.10912l15.33333,-5.33333l13.66667,3l6,6.66667l3.33333,8.66667l3,1l1.78632,4l2.21368,2.66667l2.57263,2.44018l5.42737,0.22649l4.66667,2.33333l2.33333,-1l3.33333,2.33333l3,-0.66667v3.33333l3.33333,1.33333l-1.66667,4l2.66667,2.33333l8.66667,-2.66667l2.66667,-4l5,-2.33333l1.33333,-3.33333l4.09067,0.59525l1.17643,4.40475l-0.93377,2.66667l0.33333,8.33333l-2.33333,11l1,5.66667l-9,-1.33333l-3,4.66667l3.33333,7l-0.66667,4l2.33333,4l-1,3.33333l-4.33333,1.66667l-3.33333,-1l0.66667,5.33333l-7.66667,7.07904l0.33333,5.2543h-9l-0.66667,-3l-3,3.66667l-0.33333,5.33333l-7,5.33333l-5,9l-5.33333,2.66667l-6.33333,5l-2,3.66667l-6,3l0.66667,-2.33333l3,-1.66667v-2l-3.66667,-0.33333v-4.33333l3.33333,-1.66667l2.66667,-5.66667l-4.33333,-3.33333l-5.33333,2l-1,4l-3.33333,-7.33333l-3,1h-6l-0.66667,-3.66667l-16.63298,-0.72205l-1.36702,-6.94462l3.38912,-1.9932l-0.02415,-7.26231l-2.47286,-3.75071l0.77456,-5.66045l9.66667,-6z" fill="#fbff00" stroke="none" stroke-width="0" stroke-linecap="round" display="none" class="5"/><path d="M60.26069,204.34329l6.83236,-5.75085l4.08028,-7.00001l5.21167,-0.12167l4.66667,-1.66666l8.33333,0.66666l3,3.33334l13,-1l12.66667,-2.66666l9.66666,0.66666l10,3.66666l-1,11.33334l-3.33334,3l4.33334,13l8.33334,1l8.66666,6.33334l-2.33334,8.66666l0.33334,10.33334l-2.33334,6l3,13.33333l-0.66667,6.66667l-3.33333,3.33334h-7.66667l0.66666,-5l-7.66666,-1.33333l-2.66666,-2.66667l-3,-1.66666l-5,2.66667l-5.66667,4.33333v-5.66666h-11.66666l-2.66666,-2.33334l-4.33334,-0.66666l-2.66666,1l-1.33334,-2.66667l-5,-2.66666l-1.66666,-3.33334l-4.33334,-4l-2.33334,-3.66666l-3.33333,-0.33334l-1.33334,-4.33333l-3,-1l-6.33334,-4.33334l-3.66666,-1.33334l-7.33333,-5.66666l-3.66667,-5l-3,-1.66666l-3,-3.66667l-1.33333,-8v-4.33333l3,-0.33334l1,3l3.33333,-1.66666l-1.33333,-5.66667z" fill="#29ff00" stroke="none" stroke-width="0" stroke-linecap="round" display="none" class="0"/><path d="M156.05165,70.97593l7,-2l12.33333,-6l7.66667,1l1,4l17.33333,3l5.66667,-5.33333l0.33333,-6l6.66667,-4l9.33333,3.33333l8.66667,2.33333l2,8.33333l10,4l8.33333,-2.66667l8.66667,1.33333l3,2.66667l4.66667,0.33333l2.33333,4.33333l11,1.33333l6.99999,-2.33331l4.66667,0.33334l4.66667,-1.66667l1,-3.66667l7,-4h4l1.66667,1.66667h8.33333l-3.66667,6.33333l1.33333,6.66667l-2.33333,5.33333l4.33333,4.66667h7l3.33333,-4.33333h4.66667l7.66667,4l0.33333,6l-6.33333,2.66666l-4.66667,-1l-4,2l-2.66667,-1.66666l-3.33333,-0.66667l-7.33333,9h-3.33333l-3.33333,-5.33333l-8.33333,-3l-3,1v3.66666l-2.66667,1v4.66667l2.33333,0.66667l-1.33333,6.66666h-3.66667l-1.66667,2.33334v3.33333l-9.33333,8.33333l-6,11.33334l-20.33333,4.33333l-6.66667,3l-11,-0.33333l-14.33334,-10l-10.33333,-3.66667l-9,3.33333l-4.33334,-4.33333l-4.66666,-0.66667l-1.33334,-3.33333l-7.66666,-5.66667l-1,-15l-2,-2.66666l-9.33334,-3.66667l-1.33334,-2.33333l-5.66666,-5l-0.33334,-7l-3.66666,-3.66667l-1,-4.66667l-2.66666,-6.66666l-5,-4z" fill="#ff9600" stroke="none" stroke-width="0" stroke-linecap="round" display="none" class="1"/><path d="M280.0005,337.96884l-3.00052,-1.33357l-4.00068,0.33339l-4.66747,-3.00052l-2.00035,-5.00086l2.33373,-2.66712l-8.66815,-1.33357l-3.6673,-3.33391l-5.33425,1.66696l-0.33339,2.66712l-6.00104,0.66678l-0.33339,2.66712l-4.00069,-0.33339l-2.33373,-2.00035l-3.33391,2.33374l-10.6685,-0.33339l-1.66696,2.00034l1.66696,4.66747l0.33339,5.66764l-4.00069,-0.33339l-1.33356,-5.00086l-5.33425,2.66712l-3.6673,-0.33339l-1.66695,-5.66764l-5.66764,-0.66678l2.66712,-8.33477l-5.00086,-1.00018l-1.66695,-7.33459l1.66695,-2.00034h-7.0012l-4.66747,2.33373l1.66695,-4.00068l-1.66695,-3.33391l2.33374,-3.00052v-3.00052l3.3339,-1.66695l-10.08282,-4.11569l0.58856,-10.88611l6.94565,-1.11229l-1.80037,-10.15839l-6.31951,6.26905v-3.00052l-4.33408,-3.66729h-6.00104l-2.00034,2.66712l-8.00138,1.33356l-5.00086,5.66764l-9.00154,-0.33339l-9.33494,-0.66678l3.66729,-5.33425l-2.00034,-2.33373l1.66695,-2.33373l-3.66729,-2.00034h-4.00069l-3.66729,-0.33339v-2.33374l-3.00052,-1.00017l-4.00069,2.33373l-4.66747,5.00086l-1.66696,-2.00034l0.66678,-3.6673l-2.33373,-1.00017l-7.0012,0.66678h-4.33408l-3.00052,-3.00052l-2.33373,0.66678l-2.00035,-3.00051l-1.33356,3.00052l-2.33373,-4.00069l-4.33408,-1.33356l1.00017,-2.66713h-3.00052l-3.33391,-4.00069l-0.66678,-3.6673h-4.33408l-1.66695,-4.00069l-3.6673,-2.00034l-4.00069,-5.00086l-7.0012,-1.33355l-7.33459,-7.66799v-2.00034l-8.00138,-4.00069l-1.33356,-12.00206l1.00017,-2.66713l1.66695,3.00052l2.66713,-0.66678l2.33373,-3.33391l-2.00034,-6.00103l0.33339,-4.66747l2.66713,-1.66695l5.00086,-0.33341l0.33339,-3.6673l-3.96084,-2.16825l-1.70681,-5.83313l-6.00103,-1.33355l-6.33442,-4.00069l-2.66712,-2.33373l-4.66746,-5.00086l-7.33459,-1.33356l-0.73318,-4.33407l-1.66695,-3.6673l-5.00086,-0.66678l-3.6673,-4.00069l-7.00121,1.33357l-0.33339,-5.00086l2.33373,-5.00086l-1.33356,-3.6673l2.00034,-2.66712l6.00103,-1.00017l2.66713,-4.00069l11.66867,1.33357l1.66696,-3.33391l10.33563,-2.83391l1.66644,4.16747l5.66765,-0.66678l5.00086,-4.33408l8.33476,1.33356l3.6673,-2.33373l12.33545,-2.33374l1.33356,-4.66747l5.00086,-6.00103l-0.33339,-8.33477l2.33374,-5.00086l-2.80369,-2.33374l11.13846,-1.33356l1.33356,3.00052h4.33408v-4.00069l6.66781,-13.66902l5.33425,3.00052h5.66764l-0.66678,3.00052l7.0012,-2.66712l-0.33339,-6.33443l2.33373,-4.33408l6.00104,-0.33339l2.66712,-5.66764l3.00052,2.33373l5.33425,-2.66712l6.00104,-0.66678l3.3339,-1.66696l-1.00017,-6.00104l2.66713,-1.33356l-2.33373,-3.6673l-1.66696,-7.60467l2.66712,-1.00017l2.00035,1.66696l3.3339,-1.66696v-3.00051l4.66747,-1.00017l3.6673,5.33425l10.00172,-1.33356l3.33391,-4.00068l-1.33356,-3.00052l2.66713,-1.66695l3.3339,1.33356l1.00017,-3.00051l7.66798,-1.66696l5.00086,-2.00034l3.00052,2.00034l2.33373,5.33425l5.33425,0.66678v6.00103l1.66695,4.33408l6.00103,2.66712l12.33546,3.33391l1.00017,9.00155l8.33477,3.33391l9.66833,-2.00034l8.33476,0.33339l4.66747,2.66712h3.00052l0.66678,4.00069l4.66747,2.00034l12.66884,1.33356l3.00052,-2.33373l10.00172,-2.66713l1.33356,-3.33391l6.00104,-4.00069h3.33391l4.66747,2.66713l4.33408,-2.00035l4.33407,2.33373l6.66782,1.33357l3.00051,-5.00086l5.00086,-1.66696l-1.66695,-5.33425l3.6673,-10.33511l3.33391,-3.6673l-1.33357,-5.00086l-3.6673,0.33339l3.33391,-7.0012l15.2534,-5.66764l8.00137,2.00034l6.00104,0.66678l6.33442,8.00138l3.33391,7.3346l3.00052,2.66712l1.33356,3.00052l4.00069,0.66678l2.00034,4.66747h4.00069l4.00068,1.33356h3.33391l2.33373,1.66696h3.33391l0.66678,2.66712l2.33373,2.00035l-0.66678,3.00052l2.66712,2.66712l8.66816,-2.66712l2.00034,-3.00051l5.00086,-3.00051l1.66696,-3.00052l5.33425,-2.00034l-1.66696,3.00052l2.33374,3.33391l-2.00034,3.6673l0.33339,8.00137l-1.66695,10.6685l0.33339,5.00086l-8.66816,-0.66678l-3.6673,5.33425l3.6673,6.00104l-0.33339,4.00068l1.66695,4.33408l-1.00017,4.00069l-2.66712,1.00017l3.00052,4.00069l-5.00086,-4.66747l-2.33374,-0.33339l0.66678,5.33425l-7.66798,7.66799v4.66747h-8.00137l-1.66696,-2.66712l-2.66712,3.33391l-0.33339,5.33425l-7.33459,6.33443l-5.00086,8.00137l-5.33425,2.00035l-6.33443,5.66764l-2.00034,4.00069l-5.33425,2.66712l0.66679,-3.00052l2.66712,-1.00018v-2.33373h-3.33391v-4.33407l3.00052,-1.33357l2.33373,-5.66764l-4.00069,-3.00051l-4.66747,1.00017l-3.33391,7.0012l-7.66799,5.33425v5.00086l-6.00103,3.00052l-2.33373,-1.66695l-2.33373,2.00034v3.6673l3.00051,3.00052l6.66782,0.66678l3.33391,3.00052l-2.33373,1.66695l1.33356,3.00052l2.66712,0.33339l3.33391,-1.00017l3.33391,-5.33425l4.66747,-0.66678l4.00069,1.33356l7.66798,0.33339l-0.66678,4.66747l-3.3339,-0.33339l-7.3346,4.66747v3.6673l-4.66747,3.66729l-5.00086,8.66816l0.33339,3.00052l4.00069,2.00034l5.33425,0.66678l2.33373,6.00103l4.00069,5.33425v3.6673l4.66747,0.66678l1.00018,3.33391l2.00034,2.33373l-2.66715,1.0001l4.33408,3.3339l1.00017,3.00052l-3.33391,2.00035l-3.3339,5.00086h-1.83408l1.83408,1.33356l3.3339,-1.66696l3.6673,2.00035l3.33391,-2.33373l1.66695,1.33356l-3.00052,3.66729l1.00017,4.66747l-3.00052,0.66678l2.00034,4.00069l-2.33373,6.33442l-2.00034,-1.66695l-3.33391,11.00189l-4.00068,9.66833l-0.66678,5.00086l2.00034,1.66695l-2.33373,0.66678l-6.33442,10.33511l-2.33373,-1.00017l-0.66678,2.66712l-5.33425,7.66799l-3.6673,0.33339l-2.33373,3.6673v3.33391l-11.33528,2.33373l-8.00138,3.6673l-1.00019,3.93739l-2.66713,-1.33356v-2.66713l-3.33391,-3.6673l-1.00017,2.00034l1.33356,5.33425l-3.6673,2.00034l-5.66764,3.33391l-3.6673,-0.66678l-1.66695,2.00034l-8.33477,2.33373l-4.33408,4.00069l2.33373,5.33425l-5.00086,2.33373l-2.33373,-6.00103l1.66695,-5.66764l-3.33391,-2.33373l-2.33373,3.33391l-2.00034,-0.66678l-4.66747,-2.66713z" fill="none" stroke="#000000" stroke-width="2.5" stroke-linecap="round"/><path d="M291.24709,353.04666l6.88674,-1.91298l5.73895,-0.3826l2.67818,2.29558l-2.29558,3.06078l-1.14779,6.12155l-7.26934,5.35636l-8.41713,-2.29558l-1.53039,-6.88674z" fill="none" stroke="#000000" stroke-width="2.5" stroke-linecap="round"/><path d="M70.74872,239.4752l-4.75,2.25l-3.25,-4.5" fill="none" stroke="#006bff" stroke-width="2.5" stroke-linecap="round"/><path d="M185.12372,296.72425l-2.5,-2.25l-6,2l-1.75,-2.25l-4.25,1.25l-4,-0.5l3,-2l-0.75,-4.25l12.5,-7.25l4,1.5l0.25,-4" fill="none" stroke="#006bff" stroke-width="2.5" stroke-linecap="round"/><path d="M391.62372,289.97832l4.25,1.25l-1.5,2.75l1,2.25l-1,14l-2.5,4.5l-1,2.5l1,4.5l-2,-0.5l-1.25,-3l-2.25,-1l-3.25,-5.25l0.25,-7.25l5,-11.75l2.75,-1.25z" fill="none" stroke="#006bff" stroke-width="2.5" stroke-linecap="round"/><path d="M322.12372,72.22416l-3.75,11l0.25,3.5l-2,2l3,2.75l2.25,-2.25l4,-0.25l3,1.25l3.25,-4l3,-0.25l5.25,3.5l5.75,5.25v3l-8.75,0.25l-6.5,3l-0.5,1.75l-6,2.5l-0.25,3.75l-5,5l-5.75,0.5l-0.75,2l-4.5,4h-5.25l-4,-2.25l-4,1.75l-0.5,6.25l2.75,2.25l0.5,2.75l-6.25,3.5l-3.75,5.5l-6.25,3.25l-7.25,0.25l-11,1.75l-12,7.25h-3l-0.25,-2h-5.5l-4,-2.5l-7.75,-1.5l-1.75,-3l-12.5,-1.5l-2.5,1l-13.5,-3.25l-7.5,0.25l-0.25,-2.25l-3.75,-3.25l-2.5,-7.5l0.5,-2.75l-3.75,0.25l-9.25,-8.25l-7.25,-0.25l-8.75,-3l-0.75,-4.75l3.75,-5.75l-0.75,-5l-4,-9.25l-3.25,-1.75h-2.5l-3,-5.5l-3,-1.5l-0.75,-5.75" fill="none" stroke="#006bff" stroke-width="2.5" stroke-linecap="round"/><path d="M55.61346,195.97832l-4,-4.75l-0.25,-7.5" fill="none" stroke="#006bff" stroke-width="2.5" stroke-linecap="round"/><path d="M31.11346,138.97832v5l-0.75,4l3.25,-0.5l1.75,4l-0.75,9l-4,0.5l1.75,2.5l3.5,0.5l1.25,3l2,0.75l-0.25,3.75l-2,2.75" fill="none" stroke="#ff0000" stroke-width="2.5" stroke-linecap="round"/><path d="M142.11345,276.97832l3.25,0.5l-0.5,5.25" fill="none" stroke="#ff0000" stroke-width="2.5" stroke-linecap="round"/><path d="M190.11346,273.72832l1.75,-1.5l3.75,2l1.25,6.25l3.5,0.75v10.5l-2.75,6l-3.5,2.5" fill="none" stroke="#ff0000" stroke-width="2.5" stroke-linecap="round"/><path d="M389.99947,60.22416l-2.5,-2l-1,-3.75" fill="none" stroke="#ff0000" stroke-width="2.5" stroke-linecap="round"/><path d="M434.49947,60.72416l-1,-1.25" fill="none" stroke="#ff0000" stroke-width="2.5" stroke-linecap="round"/><path d="M410.24947,130.72416l-1.75,-2.25l3.75,-0.75" fill="none" stroke="#ff0000" stroke-width="2.5" stroke-linecap="round"/><path d="M277.88498,201.30957l-7.04667,-3.32667l-4.28667,-9.34l14,-1l1.41874,-8.5525l12.0242,-6.22097l-0.77628,27.77346z" fill="#ff0000" stroke="none" stroke-width="0" stroke-linecap="butt" display="none" class="2"/><path d="M354.2183,227.58534c0,-2.11709 1.71624,-3.83333 3.83333,-3.83333c2.11709,0 3.83333,1.71624 3.83333,3.83333c0,2.11709 -1.71624,3.83333 -3.83333,3.83333c-2.11709,0 -3.83333,-1.71624 -3.83333,-3.83333z" fill="#ffffff" stroke="#000000" stroke-width="2.5" stroke-linecap="butt"/><text transform="translate(324.19401,224.08535) scale(0.1822,0.1822)" font-size="40" xml:space="preserve" fill="#000000" stroke-opacity="0" stroke="#000000" stroke-width="0" stroke-linecap="butt" font-family="Sans Serif" font-weight="normal" text-anchor="start"><tspan x="0" dy="0">Nanjing</tspan></text><text transform="translate(84.83907,226.73341) scale(0.23257,0.23257)" font-size="40" xml:space="preserve" fill="#000000" stroke="none" stroke-width="1" stroke-linecap="butt" font-family="Sans Serif" font-weight="normal" text-anchor="start" display="none" class="0"><tspan x="0" dy="0">Tibet</tspan><tspan x="0" dy="46.150000000000006px">(Kashag)</tspan></text><text transform="translate(179.53039,96.03462) scale(0.23257,0.23257)" font-size="40" xml:space="preserve" fill="#000000" stroke="none" stroke-width="1" stroke-linecap="butt" font-family="Sans Serif" font-weight="normal" text-anchor="start" display="none" class="1"><tspan x="0" dy="0">Mongolian People's Republic</tspan></text><text transform="translate(260.74477,280.41726) scale(0.23257,0.23257)" font-size="40" xml:space="preserve" fill="#000000" stroke="none" stroke-width="1" stroke-linecap="butt" font-family="Sans Serif" font-weight="normal" text-anchor="start" display="none" class="4"><tspan x="0" dy="0">Republic of China</tspan><tspan x="0" dy="46.150000000000006px">(Nanjing Nationalist Gov)</tspan></text><text transform="translate(346.71831,99.17574) scale(0.23257,0.23257)" font-size="40" xml:space="preserve" fill="#000000" stroke="none" stroke-width="1" stroke-linecap="butt" font-family="Sans Serif" font-weight="normal" text-anchor="start" display="none" class="5"><tspan x="0" dy="0">Empire of</tspan><tspan x="0" dy="46.150000000000006px">Great Manchuria</tspan></text><text transform="translate(302.45779,126.59224) scale(0.15518,0.15518)" font-size="40" xml:space="preserve" fill="#000000" stroke="none" stroke-width="1" stroke-linecap="butt" font-family="Sans Serif" font-weight="normal" text-anchor="start" display="none" class="6"><tspan x="0" dy="0">(Mongolia</tspan><tspan x="0" dy="46.150000000000006px">Military</tspan><tspan x="0" dy="46.150000000000006px">Gov)</tspan></text><text transform="translate(380.88385,166.44638) scale(0.15518,0.15518)" font-size="40" xml:space="preserve" fill="#000000" stroke="none" stroke-width="1" stroke-linecap="butt" font-family="Sans Serif" font-weight="normal" text-anchor="start" display="none" class="7"><tspan x="0" dy="0">Republic of China</tspan><tspan x="0" dy="46.150000000000006px">(East Hebei Autonomous</tspan><tspan x="0" dy="46.150000000000006px">Anti-Communist Government)</tspan></text><path d="M345.64103,149.8368l33.45997,17.19471" fill="none" stroke="#000000" stroke-width="1.5" stroke-linecap="round" display="none" class="7"/><text transform="translate(149.74477,172.41726) scale(0.23257,0.23257)" font-size="40" xml:space="preserve" fill="#000000" stroke="none" stroke-width="1" stroke-linecap="butt" font-family="Sans Serif" font-weight="normal" text-anchor="start" display="none" class="3"><tspan x="0" dy="0">Republic of China</tspan><tspan x="0" dy="46.150000000000006px">(Warlords)</tspan></text><text transform="translate(380.88385,199.44638) scale(0.15518,0.15518)" font-size="40" xml:space="preserve" fill="#000000" stroke="none" stroke-width="1" stroke-linecap="butt" font-family="Sans Serif" font-weight="normal" text-anchor="start" display="none" class="2"><tspan x="0" dy="0">Republic of China</tspan><tspan x="0" dy="46.150000000000006px">(Communist Party of China)</tspan></text><path d="M288.14103,192.83681l89.45997,8.19471" fill="none" stroke="#000000" stroke-width="1.5" stroke-linecap="round" display="none" class="2"/><path d="M88.74718,-7.58535h58.68468v39.12313h-58.68468z" fill="#fe0000" stroke="none" stroke-width="1" stroke-linecap="butt"/><path d="M88.74718,-7.58535h29.34234v19.56156h-29.34234z" fill="#000095" stroke="none" stroke-width="1" stroke-linecap="butt"/><path d="M103.41835,-5.14015l3.66779,13.6884l-10.0206,-10.02061l13.6884,3.6678l-13.6884,3.66779l10.0206,-10.02061l-3.66779,13.6884l-3.6678,-13.6884l10.02061,10.02061l-13.6884,-3.66779l13.6884,-3.6678l-10.02061,10.02061l3.6678,-13.6884" fill="#ffffff" stroke="none" stroke-width="1" stroke-linecap="butt"/><path d="M99.50603,2.19544c0,-2.16071 1.7516,-3.91231 3.91231,-3.91231c2.16071,0 3.91231,1.7516 3.91231,3.91231c0,2.16071 -1.7516,3.91231 -3.91231,3.91231c-2.16071,0 -3.91231,-1.7516 -3.91231,-3.91231z" fill="#ffffff" stroke="#000095" stroke-width="0.5" stroke-linecap="butt"/><text transform="translate(156.58952,18.41465) scale(0.5,0.5)" font-size="40" xml:space="preserve" fill="#000000" stroke="none" stroke-width="1" stroke-linecap="butt" font-family="Sans Serif" font-weight="normal" text-anchor="start"><tspan x="0" dy="0">Republic of China, 1937</tspan></text><text transform="translate(154.50003,261.76875) scale(0.5,0.5)" font-size="40" xml:space="preserve" fill="#ffffff" stroke="none" stroke-width="1" stroke-linecap="butt" font-family="Sans Serif" font-weight="normal" text-anchor="start"><tspan x="0" dy="0">SS10 PRE use only</tspan></text></g></g></svg>